<svg width="32" height="32" viewBox="0 0 32 32" fill="none" xmlns="http://www.w3.org/2000/svg">
	<path d="M32 16C32 24.8366 24.8366 32 16 32C7.16344 32 0 24.8366 0 16C0 7.16344 7.16344 0 16 0C24.8366 0 32 7.16344 32 16Z" fill="#1B1B1B"/>
	<path d="M12.8937 10.7714L15.9853 9.02857L19.0769 10.7714L20.8791 9.75714L15.9707 7L11.0622 9.75714L12.8937 10.7714ZM20.8938 13.2428L19.0916 12.2285L15.9999 13.9714L12.9084 12.2285L11.1062 13.2428V15.2714L14.1977 17.0143V20.5L15.9999 21.5143L17.8022 20.5V17.0143L20.8938 15.2714V13.2428ZM20.8938 16.7286V18.7571L19.0915 19.7714V17.7428L20.8938 16.7286ZM22.1831 19.4857L19.0915 21.2286V23.2571L24 20.5V14.9857L22.1978 16V19.4857H22.1831ZM22.1831 12.5143L20.381 11.5L22.1831 10.4857L23.9854 11.5V13.5286L22.1831 14.5429V12.5143ZM14.1831 21.9571V23.9857L15.9853 25L17.7875 23.9857V21.9571L15.9853 22.9714L14.1831 21.9571ZM12.8937 19.7714L11.0915 18.7571V16.7286L12.8937 17.7428V19.7714ZM14.1831 11.5L15.9853 12.5143L17.7875 11.5L15.9853 10.4857L14.1831 11.5ZM11.6044 11.5L9.80218 12.5143V14.5429L8 13.5286V11.5L9.80218 10.4857L11.6044 11.5ZM9.80218 16L8 14.9857V20.5L12.9085 23.2571V21.2286L9.81685 19.4857V16H9.80218Z" fill="#F0B90B"/>
</svg>