<svg xmlns="http://www.w3.org/2000/svg" width="32" height="32" fill="currentColor" viewBox="0 0 32 32" style="fill:#fff;"><rect width="24" height="24" fill="none"></rect><path d="M16.3099 28.591L15.986 28.7766L15.6109 28.5589L5.25877 22.5866C5.05518 22.4692 4.92982 22.2516 4.92982 22.0169V17.2441H3.13861V23.0489C3.13861 23.2836 3.26398 23.5012 3.46757 23.6186L15.6109 30.627L15.986 30.8446L16.3099 30.659L16.3771 30.6209V28.5539L16.3099 28.592V28.591ZM5.25877 9.43838L14.8456 3.90429V1.83729L3.46757 8.40638C3.26398 8.52372 3.13861 8.74135 3.13861 8.97603V16.4768H4.92982V10.008C4.92982 9.77335 5.05518 9.55572 5.25877 9.43838ZM16.3771 1.40202L15.986 1.17737L15.6109 1.395V3.46201L15.986 3.24438L16.3771 3.46903L26.7101 9.43838C26.9137 9.55572 27.0391 9.77335 27.0391 10.008V14.9414H28.8303V8.97603C28.8303 8.74135 28.7049 8.52372 28.5013 8.40638L16.3771 1.40202ZM27.0391 15.7106V22.0159C27.0391 22.2506 26.9137 22.4682 26.7101 22.5856L17.0751 28.1477V30.2148L28.5013 23.6166C28.7049 23.4992 28.8303 23.2816 28.8303 23.0469V15.7096H27.0391V15.7106Z"></path><path d="M30.3217 15.7107H25.5588V16.4769H30.3217V15.7107Z"></path><path d="M6.42919 15.7107H1.53998V16.4769H6.42919V15.7107Z"></path><path d="M16.378 0H15.6118V4.95941H16.378V0Z"></path><path d="M16.378 27.2241H15.6118V32H16.378V27.2241Z"></path><path d="M22.7373 11.7754L22.6605 11.2976C22.6605 11.2976 22.6573 11.2912 22.6573 11.287C22.6573 11.2828 22.6573 11.2765 22.6541 11.2702C22.6541 11.267 22.651 11.2597 22.651 11.2565C22.6478 11.2533 22.6478 11.246 22.6478 11.2428C22.6447 11.2365 22.6415 11.2323 22.6415 11.226C22.6383 11.2228 22.6383 11.2197 22.6352 11.2155C22.6352 11.2123 22.632 11.2049 22.6289 11.2018C22.6257 11.1986 22.6257 11.1955 22.6226 11.1881C22.6194 11.1849 22.6162 11.1818 22.6162 11.1776C22.6131 11.1712 22.6099 11.167 22.6057 11.1639C22.6015 11.1607 22.6026 11.1576 22.5994 11.1534C22.5962 11.1491 22.5931 11.147 22.5889 11.1397C22.5857 11.1365 22.5826 11.1365 22.5784 11.1334C22.5752 11.1302 22.572 11.1228 22.5647 11.1197C22.5647 11.1165 22.5615 11.1165 22.5584 11.1134C22.552 11.1102 22.5478 11.107 22.5447 11.1028C22.5415 11.0986 22.5341 11.0965 22.531 11.0923C22.5278 11.0923 22.5247 11.0891 22.5205 11.086C22.5141 11.0828 22.5099 11.0797 22.5036 11.0797C22.5005 11.0765 22.4973 11.0765 22.4973 11.0734H22.4941C22.4878 11.0702 22.4805 11.067 22.4773 11.067C22.4741 11.0639 22.471 11.0639 22.4668 11.0639C22.4605 11.0607 22.4531 11.0576 22.4468 11.0576C22.4436 11.0576 22.4405 11.0544 22.4363 11.0544C22.432 11.0544 22.4257 11.0513 22.4226 11.0513C22.4163 11.0513 22.412 11.0513 22.4089 11.0481H22.3384C22.332 11.0481 22.3247 11.0481 22.3184 11.0513H22.3078C22.3015 11.0544 22.2942 11.0544 22.291 11.0544C22.2847 11.0576 22.2805 11.0576 22.2773 11.0607C22.271 11.0607 22.2668 11.0607 22.2636 11.0639C22.2573 11.067 22.2531 11.067 22.2468 11.0702C22.2436 11.0702 22.2405 11.0734 22.2363 11.0734C22.2299 11.0765 22.2257 11.0797 22.2194 11.0839C22.2163 11.0839 22.2131 11.087 22.2089 11.087C22.2057 11.0902 22.1984 11.0934 22.1952 11.0976C22.1921 11.1018 22.1889 11.1007 22.1847 11.1039C22.1805 11.107 22.1784 11.1102 22.171 11.1144L22.1605 11.1249C22.1605 11.1249 22.1542 11.1312 22.15 11.1355L22.1394 11.146L22.1289 11.1565C22.1289 11.1565 22.1226 11.1628 22.1184 11.1702C22.1184 11.1734 22.1152 11.1765 22.1121 11.1807C22.1089 11.1849 22.1057 11.1912 22.1057 11.1944C22.1026 11.1976 22.0994 11.2049 22.0952 11.2081C22.0952 11.2112 22.0921 11.2144 22.0921 11.2186L19.6027 16.3846L19.5722 16.4457C19.5448 16.4352 19.5154 16.432 19.4817 16.432H12.5431L9.86957 11.2123C9.86957 11.2123 9.86641 11.2091 9.86641 11.206C9.86325 11.2028 9.8601 11.1955 9.8601 11.1923C9.85694 11.1891 9.85378 11.1818 9.84957 11.1786C9.84957 11.1755 9.84641 11.1723 9.84325 11.1681C9.8401 11.1639 9.83694 11.1576 9.83273 11.1544L9.8222 11.1439L9.81168 11.1334L9.80115 11.1228C9.80115 11.1228 9.79484 11.1165 9.79063 11.1123C9.78747 11.1091 9.7801 11.1091 9.77694 11.106L9.76642 11.0955C9.76642 11.0955 9.75589 11.0923 9.75273 11.0891C9.74958 11.086 9.74642 11.086 9.74221 11.0828C9.73589 11.0797 9.73168 11.0765 9.72537 11.0765C9.72221 11.0734 9.71905 11.0734 9.71484 11.0702C9.70852 11.0702 9.70431 11.067 9.698 11.067C9.69484 11.0639 9.69168 11.0639 9.68432 11.0607C9.68116 11.0607 9.678 11.0607 9.67063 11.0576C9.66747 11.0576 9.66011 11.0544 9.65379 11.0544H9.64327C9.63695 11.0513 9.62958 11.0513 9.62642 11.0513H9.56643C9.56643 11.0513 9.56011 11.0513 9.55274 11.0544H9.53906C9.53275 11.0576 9.52853 11.0576 9.52538 11.0576C9.51906 11.0607 9.51485 11.0607 9.51169 11.0639C9.50538 11.0639 9.50117 11.067 9.49485 11.067C9.49169 11.0702 9.48854 11.0702 9.48433 11.0702C9.47801 11.0734 9.47064 11.0765 9.46749 11.0807H9.46117C9.46117 11.0807 9.45801 11.0839 9.45485 11.0839C9.4517 11.087 9.44854 11.0902 9.44117 11.0944C9.43801 11.0976 9.43485 11.0976 9.43064 11.1007C9.42643 11.1039 9.42012 11.107 9.41696 11.1112C9.4138 11.1112 9.41065 11.1144 9.40644 11.1176L9.39591 11.1281C9.39591 11.1281 9.38538 11.1344 9.38223 11.1386C9.37907 11.1428 9.37907 11.1449 9.37591 11.1491C9.37275 11.1534 9.3696 11.1597 9.36539 11.1628L9.35486 11.1734C9.35486 11.1734 9.34854 11.1797 9.34854 11.187L9.33802 11.1976C9.33802 11.2039 9.33486 11.2081 9.3317 11.2112C9.3317 11.2144 9.32854 11.2218 9.32539 11.2249C9.32539 11.2281 9.32223 11.2355 9.32223 11.2386C9.31907 11.2418 9.31907 11.2491 9.31591 11.2523C9.31591 11.2555 9.31276 11.2628 9.31276 11.266C9.3096 11.2691 9.3096 11.2765 9.3096 11.2797C9.30644 11.286 9.30644 11.2902 9.30644 11.2965C9.30644 11.2965 9.30539 11.2986 9.30328 11.3028L9.22645 11.7807C9.22013 11.8081 9.19908 11.9554 9.17592 12.2007C9.15277 12.4491 9.13171 12.7964 9.13171 13.2164C9.13171 14.0206 9.20855 15.0994 9.50538 16.3004C9.78431 17.4435 10.299 18.8066 11.2337 20.1518C12.1652 21.4938 13.5209 22.8159 15.4651 23.8653L15.8356 24.0642C15.8356 24.0642 15.8419 24.0674 15.8461 24.0674L15.8661 24.0779C15.8661 24.0779 15.8766 24.081 15.8829 24.0842C15.8892 24.0842 15.8935 24.0874 15.8998 24.0874C15.9103 24.0905 15.9166 24.0905 15.9229 24.0937C15.9292 24.0937 15.9335 24.0937 15.9366 24.0968H15.9734C15.9734 24.0968 15.9734 24.1 15.9766 24.1C15.9903 24.1 16.004 24.0968 16.0166 24.0968C16.0166 24.0968 16.0198 24.0968 16.0229 24.0937C16.0334 24.0937 16.0429 24.0905 16.0534 24.0905C16.0598 24.0874 16.064 24.0874 16.0703 24.0842C16.0766 24.081 16.084 24.081 16.0903 24.0779C16.0966 24.0747 16.1008 24.0716 16.1071 24.0674C16.1103 24.0674 16.1177 24.0642 16.1208 24.0642L16.4913 23.8653C18.4354 22.8159 19.7911 21.4938 20.7227 20.1518C21.6574 18.8066 22.1721 17.4446 22.451 16.3004C22.7468 15.0994 22.8247 14.0206 22.8247 13.2164C22.8247 12.3722 22.7405 11.8344 22.731 11.7807L22.7373 11.7754ZM11.7326 19.8034C10.8485 18.5319 10.3601 17.2372 10.0917 16.151C9.81273 15.011 9.738 13.9785 9.738 13.2111C9.738 12.8512 9.75168 12.548 9.77168 12.3228L15.2703 23.0558C13.6694 22.1012 12.5357 20.9602 11.7316 19.8034H11.7326ZM15.9903 23.1495L12.8526 17.0246H19.2627L15.9903 23.1495ZM21.8794 16.1499C21.61 17.2362 21.1226 18.5308 20.2385 19.8023C19.4385 20.9528 18.3144 22.0864 16.7302 23.0379L20.1374 16.6615L20.1437 16.6478L22.2026 12.3691C22.2194 12.5912 22.2331 12.8733 22.2331 13.2101C22.2331 13.9774 22.1594 15.01 21.8794 16.1499Z" stroke-width="0.5"></path><path d="M11.5358 11.07L15.985 9.71219L20.5332 11.1005C20.6911 11.1489 20.8585 11.0595 20.9069 10.9016C20.9553 10.7437 20.8658 10.5763 20.7079 10.5279L16.0724 9.11327C16.0156 9.09538 15.9545 9.09538 15.8977 9.11327L11.3611 10.4985C11.2032 10.5469 11.1137 10.7142 11.1621 10.8721C11.2106 11.03 11.3779 11.1195 11.5358 11.0711V11.07Z" stroke-width="0.5"></path></svg>